<svg width="41" height="47" viewBox="0 0 41 47" fill="none" xmlns="http://www.w3.org/2000/svg">
<path d="M28.5641 44.5132V38.4942C28.6352 37.4943 28.513 36.4889 28.2055 35.5452C27.8979 34.6014 27.4122 33.7408 26.7805 33.0206C32.7384 32.2866 39 29.7909 39 18.3402C38.9994 15.4122 37.9805 12.5965 36.1538 10.4758C37.0187 7.91408 36.9576 5.08254 35.9831 2.56937C35.9831 2.56937 33.7441 1.83536 28.5641 5.67321C24.2152 4.37048 19.631 4.37048 15.282 5.67321C10.102 1.83536 7.86305 2.56937 7.86305 2.56937C6.88847 5.08254 6.82731 7.91408 7.69228 10.4758C5.85199 12.6122 4.83193 15.4534 4.84612 18.4032C4.84612 29.7699 11.1076 32.2656 17.0656 33.0835C16.4413 33.7965 15.9599 34.6467 15.6526 35.5789C15.3453 36.5111 15.219 37.5046 15.282 38.4942V44.5132" stroke="white" stroke-width="3.2258" stroke-linecap="round" stroke-linejoin="round"/>
<path d="M15.2821 40.3187C9.58974 42.3597 4.84615 40.3187 2 34.0271" stroke="white" stroke-width="3.2258" stroke-linecap="round" stroke-linejoin="round"/>
</svg>
