<svg width="29" height="35" viewBox="0 0 29 35" fill="none" xmlns="http://www.w3.org/2000/svg">
<path d="M3.59875 0C1.6112 0 0 1.93214 0 4.31552V30.2086C0 32.592 1.6112 34.5241 3.59875 34.5241H7.1975C9.18505 34.5241 10.7963 32.592 10.7963 30.2086V4.31552C10.7963 1.93214 9.18505 0 7.1975 0H3.59875Z" fill="white"/>
<path d="M21.5925 0C19.6049 0 17.9937 1.93214 17.9937 4.31552V30.2086C17.9937 32.592 19.6049 34.5241 21.5925 34.5241H25.1912C27.1788 34.5241 28.79 32.592 28.79 30.2086V4.31552C28.79 1.93214 27.1788 0 25.1912 0H21.5925Z" fill="white"/>
</svg>
