<svg width="46" height="47" viewBox="0 0 46 47" fill="none" xmlns="http://www.w3.org/2000/svg">
<path d="M22.9677 32.7998C28.1144 32.7998 32.2867 28.6275 32.2867 23.4808C32.2867 18.3341 28.1144 14.1619 22.9677 14.1619C17.821 14.1619 13.6487 18.3341 13.6487 23.4808C13.6487 28.6275 17.821 32.7998 22.9677 32.7998Z" stroke="white" stroke-width="3.49462" stroke-linecap="round" stroke-linejoin="round"/>
<path d="M2 32.7999V14.1619C2 7.7285 7.21532 2.51318 13.6487 2.51318H32.2867C38.72 2.51318 43.9354 7.7285 43.9354 14.1619V32.7999C43.9354 39.2332 38.72 44.4486 32.2867 44.4486H13.6487C7.21532 44.4486 2 39.2332 2 32.7999Z" stroke="white" stroke-width="3.49462"/>
<path d="M35.7813 10.6904L35.8046 10.6646" stroke="white" stroke-width="3.49462" stroke-linecap="round" stroke-linejoin="round"/>
</svg>
