<svg width="22" height="22" viewBox="0 0 22 22" fill="none" xmlns="http://www.w3.org/2000/svg">
<path d="M12.2696 0.0721226C12.5606 0.19493 12.7643 0.456929 12.8166 0.761361L12.8298 0.916666V21.0833C12.8298 21.4525 12.6083 21.7858 12.2678 21.9287C11.976 22.0511 11.6457 22.0131 11.3914 21.8368L11.2712 21.7373L5.9075 16.4664H2.74925C1.32021 16.4664 0.145806 15.3758 0.0125855 13.9813L0 13.7165V8.23666C0 6.80723 1.09034 5.63251 2.48448 5.49925L2.74925 5.48667H5.90977L11.2739 0.260057C11.5379 0.00287759 11.9301 -0.0711523 12.2696 0.0721226ZM17.8476 1.94183L18.0063 2.04963L18.1855 2.20467C18.3008 2.30831 18.4599 2.45844 18.6483 2.65411C19.0246 3.04496 19.5205 3.62088 20.0154 4.37482C21.0059 5.88386 22 8.12045 22 11.0074C22 13.8945 21.0057 16.1278 20.0147 17.6335C19.5196 18.3857 19.0235 18.9599 18.647 19.3495L18.3881 19.6079L18.0458 19.9177L17.9854 19.9674C17.5886 20.2818 17.0108 20.216 16.6965 19.8192C16.4178 19.4672 16.4389 18.9737 16.7242 18.6473L16.961 18.4319C17.0464 18.3555 17.1738 18.2361 17.3292 18.0754C17.6406 17.7531 18.0616 17.267 18.4839 16.6256C19.3272 15.3439 20.1672 13.4558 20.1672 11.0074C20.1672 8.55885 19.3272 6.66678 18.4832 5.38099C18.1313 4.84477 17.7801 4.4165 17.4924 4.10129L17.1823 3.77812L16.8444 3.46753C16.4491 3.15208 16.3829 2.57493 16.698 2.17906C16.9782 1.82701 17.4648 1.7362 17.8476 1.94183ZM16.0162 5.60831L16.1987 5.73616L16.4437 5.96668L16.5427 6.07051C16.7508 6.29496 17.0191 6.62375 17.2849 7.06095C17.8191 7.94008 18.3362 9.24804 18.3362 10.9973C18.3362 12.7466 17.8191 14.0559 17.2852 14.9363C17.0198 15.3741 16.7515 15.7038 16.5437 15.9287L16.3575 16.1199L16.2287 16.2391L16.1558 16.3009L16.0395 16.3537C15.7968 16.4509 15.2294 16.6094 14.8679 16.157C14.5884 15.8072 14.6065 15.3157 14.8879 14.988L15.1343 14.7511L15.1974 14.6846C15.334 14.5369 15.5248 14.3045 15.7181 13.9855C16.1023 13.3522 16.5033 12.3678 16.5033 10.9973C16.5033 9.62693 16.1023 8.64456 15.7187 8.01331C15.5737 7.7748 15.4302 7.585 15.3101 7.44301L15.1355 7.25074L15.0099 7.13157C14.6164 6.81766 14.5517 6.24198 14.8666 5.84602C15.1467 5.49385 15.6332 5.40284 16.0162 5.60831Z" fill="white"/>
</svg>
