<svg width="400" height="400" viewBox="0 0 270 297" fill="none" xmlns="http://www.w3.org/2000/svg">
<path fill-rule="evenodd" clip-rule="evenodd" d="M37.5689 3.888C36.5359 5.873 36.0259 8.379 36.3369 9.936C37.0589 13.543 36.2959 14.327 30.6439 15.791L25.7869 17.049L21.4859 12.775C16.5869 7.905 13.2289 5 12.4999 5C11.0329 5 12.1889 16.948 13.9999 20.5C15.0999 22.658 15.9999 24.79 15.9999 25.239C15.9999 25.688 14.4389 29.214 12.5309 33.074C9.25391 39.705 9.07391 40.601 9.27591 49.296C9.50691 59.263 8.2939 64.247 2.8659 75.64C-0.779098 83.291 -0.331094 87.97 4.67791 94.53C10.5649 102.24 14.4339 100.766 26.5539 86.195C30.7929 81.098 34.4179 77.084 34.6079 77.275C34.7989 77.466 37.0799 85.919 39.6759 96.061C43.5699 111.271 44.3999 116.076 44.4129 123.5C44.4269 131.502 44.1129 133.088 41.5799 137.806C39.1499 142.332 38.8139 143.875 39.2889 148.306C39.5959 151.163 41.4859 157.022 43.4889 161.327C46.0879 166.91 47.6889 172.463 49.0749 180.698C50.1439 187.048 52.1729 195.001 53.5849 198.371C58.6729 210.521 59.9999 215.038 60.0079 220.225C60.0209 229.75 61.8759 238.234 64.7879 242.097C66.2799 244.076 70.2969 249.476 73.7169 254.097C77.1359 258.719 80.7799 263.625 81.8139 265C82.8489 266.375 83.9549 269.482 84.2729 271.904C84.5909 274.325 85.7649 277.543 86.8809 279.053C87.9979 280.564 89.2089 282.984 89.5719 284.431C89.9359 285.879 92.1489 289.18 94.4919 291.768C98.5799 296.284 98.8539 296.416 101.352 295.079C102.893 294.254 104.631 291.915 105.614 289.342C107.059 285.558 107.109 284.224 106.002 279.01C104.499 271.928 103.554 270.944 98.5509 271.261C95.4099 271.46 94.6329 271.111 93.8929 269.171C93.0719 267.016 93.2109 266.887 95.7529 267.444C97.5249 267.831 99.8649 267.348 102.348 266.08C104.464 265 107.455 263.839 108.994 263.501C113.069 262.606 115.436 259.683 114.102 257.191C112.443 254.091 107.066 249.998 104.673 250.015C101.923 250.035 100.604 250.921 99.1149 253.75C98.1259 255.627 97.0979 256 92.9139 256C88.1939 256 87.8169 255.807 86.5319 252.732C85.7809 250.934 84.8449 246.199 84.4519 242.209C84.0589 238.22 83.3459 234.714 82.8689 234.419C81.2809 233.438 81.9709 228.307 84.0439 225.671C87.4089 221.393 95.7009 203.174 99.3789 191.977L102.82 181.5L109.976 181.853L117.132 182.207L127.316 192.46C132.917 198.099 138.922 203.443 140.659 204.335C146.304 207.234 147.07 211.242 147.098 238C147.111 250.925 146.995 263.451 146.84 265.837C146.628 269.1 146.984 270.412 148.279 271.136C150.381 272.313 150.468 275.737 148.55 281.866C144.736 294.055 144.552 295.104 146.065 296.061C149.997 298.55 161.324 294.488 164.663 289.391C166.125 287.161 166.183 286.358 165.08 283.649C162.762 277.959 162.641 275.983 164.526 274.605C166.068 273.477 166.214 272.322 165.631 265.888C165.057 259.554 165.308 257.45 167.348 251.485C171.225 240.148 174.916 232.04 179.145 225.573C182.758 220.048 183.057 219.094 182.459 215C182.098 212.525 181.397 209.742 180.901 208.816C179.73 206.628 179.757 196.056 180.951 188.763C181.468 185.608 182.204 177.958 182.587 171.763C183.216 161.577 183.543 160.165 186.008 157C190.257 151.545 193.056 145.32 193.698 139.902C194.657 131.803 197.206 132.194 198.361 140.618C199.66 150.097 204.7 156.065 215.809 161.282C223.861 165.062 231.694 165.519 235.166 162.41C236.45 161.26 240.008 159.783 243.073 159.128C249.103 157.838 252.401 155.987 254.003 152.995C254.826 151.457 254.396 150.382 251.76 147.38C249.967 145.338 248.95 143.516 249.5 143.332C253.585 141.963 257.814 138.97 259.745 136.08C261.002 134.199 263.463 131.789 265.214 130.724L268.399 128.787L265.319 127.492C260.58 125.499 260.403 124.197 264.326 120.16C267.822 116.561 270.739 111 269.13 111C268.679 111 267.453 111.948 266.405 113.106C263.321 116.516 257.434 119 252.434 119C240.132 119 222.727 111.119 215.18 102.131C200.741 84.936 186.981 73.202 174.5 67.442C165.866 63.457 157.278 61.611 151.705 62.542C146.303 63.445 127.801 70.582 115.68 76.438C105.056 81.572 100.144 82.167 93.4999 79.125C88.4149 76.796 80.9459 68.8 77.4949 61.99C74.8239 56.719 74.8229 56.714 76.7609 54.108C77.8279 52.673 79.6679 51.356 80.8499 51.18C84.2879 50.669 83.3819 49.415 77.5979 46.677C72.6979 44.357 67.8419 39.807 69.7339 39.309C70.1549 39.198 72.4119 38.616 74.7499 38.015C79.9129 36.688 80.3109 35 75.4599 35C71.4769 35 65.0099 32.021 61.1039 28.388C58.7729 26.22 49.4319 22 46.9619 22C46.4329 22 45.9979 19.862 45.9959 17.25C45.9939 14.063 45.2609 11.348 43.7699 9C42.5479 7.075 41.0489 4.375 40.4399 3L39.3319 0.5L37.5689 3.888ZM42.2499 8.416C44.3229 11.69 44.9999 14.015 44.9999 17.861C44.9999 22.613 45.1879 23.003 47.7499 23.562C52.7969 24.664 56.3209 26.362 60.9299 29.912C63.4439 31.848 67.7499 34.22 70.4999 35.183L75.4999 36.935L71.7499 36.967C67.5809 37.004 67.2829 37.712 69.5709 42.137C70.5579 44.046 72.7959 45.907 75.5919 47.144L80.0419 49.112L77.0209 52.133C75.3589 53.794 73.9999 55.933 73.9999 56.886C73.9999 59.379 80.4989 69.854 84.7819 74.267C89.6589 79.291 95.5099 82 101.484 82C105.198 82 108.831 80.84 116.973 77.057C122.823 74.338 132.453 70.243 138.372 67.957C148.403 64.083 149.69 63.824 157.317 64.152C164.306 64.452 166.655 65.054 173.42 68.283C186.716 74.629 196.399 82.876 215.63 104.235C220.765 109.939 228.174 114.276 238.302 117.509C248.634 120.808 256.172 120.814 262.351 117.528C264.908 116.169 267 115.321 267 115.644C267 115.967 265.087 118.005 262.75 120.173L258.5 124.114L261.845 126.96C264.8 129.473 264.973 129.874 263.326 130.397C262.3 130.722 260.616 132.558 259.583 134.476C257.514 138.318 254.931 140.331 250.75 141.361C247.264 142.219 247.159 144.908 250.5 147.813C255.525 152.182 252.923 155.492 242.401 158.118C239.705 158.791 236.226 160.276 234.67 161.418C230.869 164.207 224.624 163.89 217.299 160.537C205.949 155.341 200.6 149.275 199.276 140.099C198.43 134.232 195.784 131.181 193.987 134C193.461 134.825 193.024 136.461 193.015 137.635C192.985 141.835 189.705 149.86 186.039 154.704C182.316 159.623 182.307 159.658 180.919 175.066C179.434 191.546 179.297 204.605 180.503 214.803C181.158 220.347 181.005 221.372 179.231 223.303C176.266 226.533 170.69 238.202 167.095 248.699C164.208 257.128 164.001 258.572 164.616 265.949C165.206 273.024 165.088 274 163.644 274C161.484 274 161.441 279.018 163.565 283.126C164.966 285.835 164.971 286.395 163.616 288.463C161.237 292.094 155.166 295.341 150.599 295.425C145.965 295.51 146.056 295.929 148.549 286C151.303 275.029 151.487 271.829 149.447 270.338C148.225 269.444 147.74 267.982 147.928 265.762C148.08 263.968 148.213 251.475 148.224 238C148.247 209.292 148.016 208.309 139.843 202.219C136.904 200.03 130.786 194.413 126.246 189.737L117.992 181.236L109.746 180.561L101.5 179.887L99.2039 188.193C96.5549 197.774 91.6699 209.535 86.2679 219.335C84.1949 223.094 81.9169 227.247 81.2049 228.565C80.1779 230.465 80.1609 231.432 81.1239 233.231C81.7929 234.479 82.9259 239.445 83.6429 244.266C85.4389 256.338 85.8909 257.003 92.2849 256.985C97.9269 256.968 98.9199 256.552 100.602 253.5C102.499 250.058 105.571 250.521 110.219 254.946C114.333 258.864 114.425 259.082 112.576 260.499C111.518 261.311 109.172 262.252 107.362 262.592C105.552 262.931 103.55 263.837 102.913 264.605C102.212 265.449 99.8309 266 96.8779 266C91.2479 266 90.6449 267.313 94.3139 271.579C96.3269 273.918 96.9159 274.115 98.8349 273.088C100.048 272.439 101.51 272.197 102.082 272.551C103.839 273.637 105.076 278.083 105.142 283.545C105.211 289.32 103.971 292.41 100.933 294.036C99.2319 294.946 98.4509 294.624 96.0019 292.002C94.4009 290.288 91.9169 286.55 90.4819 283.693C89.0459 280.837 87.2319 277.375 86.4509 276C85.6689 274.625 85.0229 271.882 85.0149 269.905C85.0049 267.535 84.2829 265.661 82.8979 264.407C81.7409 263.361 80.1509 261.258 79.3629 259.735C78.5749 258.212 75.0499 253.397 71.5289 249.036C68.0079 244.675 64.6369 240.189 64.0359 239.068C63.4359 237.946 62.4799 232.185 61.9109 226.264C60.8409 215.127 59.0109 207.91 54.5799 197.348C53.1609 193.964 51.1239 186.075 50.0539 179.816C48.6529 171.619 47.0709 166.251 44.3979 160.624C39.3459 149.984 38.9559 144.952 42.6409 137.94C45.2739 132.93 45.4889 131.709 45.3599 122.5C45.2629 115.575 44.5329 110.04 42.9879 104.5C41.7609 100.1 39.5649 91.186 38.1089 84.692L35.4619 72.884L33.0419 76.192C25.1779 86.942 16.6589 95.958 13.3239 97.058C9.93291 98.177 9.6059 98.072 6.3609 94.827C3.6479 92.114 2.8289 90.356 2.3339 86.172C1.8079 81.734 2.1179 80.117 4.3399 75.711C8.6309 67.204 11.2049 55.581 10.4769 48C9.89591 41.939 10.0949 41.013 13.4269 34.278C17.2899 26.469 17.7749 23.536 15.6079 21.079C13.8429 19.078 12.3839 9 13.8589 9C16.5809 9 19.9759 11.593 22.5169 15.613C24.9969 19.536 25.4879 19.87 26.9049 18.6C27.7819 17.813 30.1709 16.859 32.2139 16.48C36.6879 15.65 38.4219 13.816 37.6479 10.733C37.0329 8.283 37.8169 3.976 38.8669 4.037C39.2149 4.057 40.7379 6.027 42.2499 8.416ZM154.405 158.122C153.357 159.288 149.913 162.005 146.75 164.159C143.587 166.312 141 168.816 141 169.722C141 173.45 145.745 180.68 153.631 188.967C162.651 198.445 163.703 201.124 160.307 205.973C157.5 209.98 156.016 220.482 155.428 240.5C154.938 257.166 155.047 259.282 156.315 257.723C157.109 256.746 158.9 252.696 160.293 248.723C165.945 232.608 167.309 226.577 167.691 216C168.393 196.608 168.477 197.196 163.682 187.95C158.936 178.798 156.513 168.587 157.16 160.458C157.559 155.442 157.135 155.082 154.405 158.122ZM158.481 179.093C159.441 182.067 161.736 187.247 163.581 190.604L166.935 196.708L166.499 211.564C166.103 225.106 165.741 227.486 162.416 238.46C156.524 257.903 155.804 258.207 156.399 241C157.059 221.877 158.544 211.964 161.61 206.196C163.282 203.053 163.892 200.706 163.472 199.034C163.129 197.666 159.1 192.658 154.518 187.906C146.575 179.666 144.088 176.209 142.577 171.305C142.002 169.441 142.927 168.358 148.7 164.136L155.5 159.162L156.118 166.424C156.457 170.418 157.521 176.119 158.481 179.093ZM72.2519 186.718C69.3179 187.267 68.5689 190.466 69.4139 198.834C70.1329 205.953 73.4819 214.335 75.3619 213.719C77.1489 213.133 78.9859 204.25 79.0929 195.678C79.1459 191.376 79.0339 187.72 78.8449 187.552C77.9939 186.802 74.2989 186.335 72.2519 186.718ZM77.9999 194.951C77.9999 202.456 76.3349 212 75.0259 212C72.6189 212 69.2419 195.868 70.5539 190.641C71.1069 188.436 71.7769 188 74.6079 188H77.9999V194.951Z" fill="#474747"/>
</svg>
