<svg width="39" height="29" viewBox="0 0 39 29" fill="none" xmlns="http://www.w3.org/2000/svg">
<path d="M23 14.2789L16.875 17.7377V10.8201L23 14.2789Z" fill="white" stroke="white" stroke-width="2.97005" stroke-linecap="round" stroke-linejoin="round"/>
<path d="M2 15.5026V13.0553C2 8.04801 2 5.54441 3.58461 3.93352C5.16923 2.32262 7.66398 2.25289 12.6535 2.11343C15.0178 2.04735 17.4329 2 19.5 2C21.5671 2 23.9823 2.04735 26.3465 2.11343C31.336 2.25289 33.8307 2.32262 35.4154 3.93352C37 5.54441 37 8.04801 37 13.0553V15.5026C37 20.5097 37 23.0134 35.4154 24.6242C33.8307 26.2351 31.3361 26.3048 26.3467 26.4444C23.9823 26.5104 21.5671 26.5578 19.5 26.5578C17.4329 26.5578 15.0177 26.5104 12.6533 26.4444C7.66389 26.3048 5.1692 26.2351 3.58459 24.6242C2 23.0134 2 20.5097 2 15.5026Z" stroke="white" stroke-width="2.97005"/>
</svg>
